<?xml version="1.0" standalone="no"?><!DOCTYPE svg PUBLIC "-//W3C//DTD SVG 1.1//EN" "http://www.w3.org/Graphics/SVG/1.1/DTD/svg11.dtd"><svg t="1686363487434" class="icon" viewBox="0 0 1024 1024" version="1.1" xmlns="http://www.w3.org/2000/svg" p-id="10695" xmlns:xlink="http://www.w3.org/1999/xlink" width="16" height="16"><path d="M237.792256 581.467136c24.2432-0.115712 721.024 2.320384 721.024 2.320384s0.070656-348.018688 0.070656-370.01216c0-85.435392-57.955328-150.441984-131.25632-150.441984-13.285376 0-91.030528 0.109568-186.697728 0.243712l0 383.710208-59.768832-107.564032-70.038528 107.564032L511.125504 63.75936c-138.800128 0.190464-273.733632 0.362496-289.17248 0.306176-100.557824-0.385024-156.858368 43.37152-156.858368 145.17248 0 52.640768 0 534.26176 0 576.068608 0 103.897088 30.262272 182.493184 119.544832 182.46144 96.608256-0.031744 739.792896-0.031744 752.523264 0 12.59008 0.045056 21.653504-5.788672 21.653504-17.063936 0-12.961792-10.781696-51.17952-20.743168-51.710976 0 0-663.697408 0.096256-697.485312 0.019456-51.820544-0.096256-116.448256-60.891136-115.46112-162.82624C125.914112 653.33248 182.990848 581.653504 237.792256 581.467136z" p-id="10696"></path></svg>